PathFileType	4	(X/Y/Z)	/Users/itak/Documents/Research/Walk-IL/dataset/trc/00354_00011.trc
DataRate	CameraRate	NumFrames	NumMarkers	Units	OrigDataRate	OrigDataStartFrame	OrigNumFrames
100.000000	100.000000	4	54	mm	100.000000	758	867
Frame#	Time	RPSI			LPSI			L3			STRN			T10			C7			CLAV			RBAK			LBAK			LSHO			LUPA			LAEL			LAOL			LWTS			LWPS			LFRA			LIFD			LHPS			LHTS			RSHO			RUPA			RAEL			RAOL			RWTS			RWPS			RFRA			RIFD			RHTS			RHPS			RBHD			LFHD			RFHD			LBHD			RHIP			RASI			LASI			LKNE			LTHI			LANK			LTIP			LTOE			LMT1			LMT5			LHEE			RKNE			RANK			RTIP			RTOE			RMT1			RMT5			RHEE			LHIP			RTHI			*53			
		X1	Y1	Z1	X2	Y2	Z2	X3	Y3	Z3	X4	Y4	Z4	X5	Y5	Z5	X6	Y6	Z6	X7	Y7	Z7	X8	Y8	Z8	X9	Y9	Z9	X10	Y10	Z10	X11	Y11	Z11	X12	Y12	Z12	X13	Y13	Z13	X14	Y14	Z14	X15	Y15	Z15	X16	Y16	Z16	X17	Y17	Z17	X18	Y18	Z18	X19	Y19	Z19	X20	Y20	Z20	X21	Y21	Z21	X22	Y22	Z22	X23	Y23	Z23	X24	Y24	Z24	X25	Y25	Z25	X26	Y26	Z26	X27	Y27	Z27	X28	Y28	Z28	X29	Y29	Z29	X30	Y30	Z30	X31	Y31	Z31	X32	Y32	Z32	X33	Y33	Z33	X34	Y34	Z34	X35	Y35	Z35	X36	Y36	Z36	X37	Y37	Z37	X38	Y38	Z38	X39	Y39	Z39	X40	Y40	Z40	X41	Y41	Z41	X42	Y42	Z42	X43	Y43	Z43	X44	Y44	Z44	X45	Y45	Z45	X46	Y46	Z46	X47	Y47	Z47	X48	Y48	Z48	X49	Y49	Z49	X50	Y50	Z50	X51	Y51	Z51	X52	Y52	Z52	X53	Y53	Z53	X54	Y54	Z54	

759	7.58	426.4013366699219	975.2124633789062	704.4688110351562	429.1640625	975.410400390625	833.75146484375	429.9787902832031	1027.050048828125	762.0946655273438	213.9877014160156	1223.60888671875	779.6152954101562	449.537109375	1145.2626953125	767.6846923828125	420.8007507324219	1394.404174804688	787.388427734375	261.7369689941406	1347.992065429688	782.7948608398438	462.1986694335938	1255.0205078125	715.4884643554688	428.7295227050781	1355.257446289062	888.038818359375	346.5120239257812	1379.498657226562	946.3982543945312	356.9898071289062	1257.22509765625	1012.687316894531	324.8468627929688	1053.771240234375	1022.633056640625	383.256103515625	1037.740600585938	962.8123779296875	214.710205078125	816.3748168945312	977.4913330078125	253.5979156494141	804.6366577148438	1034.015625	303.1062927246094	950.6360473632812	1029.60986328125	203.1875915527344	657.34716796875	973.56884765625	252.4918060302734	733.613037109375	1028.803588867188	198.2206420898438	738.9298095703125	994.8882446289062	361.9366760253906	1387.633544921875	624.6956176757812	367.7039489746094	1322.976318359375	558.929931640625	343.7598266601562	1055.10693359375	524.0068359375	394.7800903320312	1045.03466796875	603.9613647460938	233.7204742431641	829.8508911132812	582.6990966796875	259.8418579101562	815.28515625	512.0846557617188	315.3071899414062	989.57470703125	518.31884765625	218.7879943847656	657.6962280273438	575.005859375	200.1174926757812	729.6670532226562	569.8189697265625	242.2408599853516	731.0026245117188	514.8493041992188	391.3302001953125	1602.50341796875	706.1283569335938	220.0472869873047	1627.827392578125	821.8584594726562	230.9652709960938	1626.664672851562	721.1781005859375	401.234619140625	1597.361206054688	850.6873779296875	345.7911376953125	919.848876953125	601.4296875	239.8749542236328	950.1088256835938	642.1793823242188	223.7182922363281	946.6358642578125	882.1788330078125	328.2235717773438	469.1658630371094	957.0354614257812	314.5742492675781	605.015380859375	956.907470703125	393.4015808105469	35.76398086547852	960.9635620117188	363.8042907714844	253.3226165771484	974.7554321289062	181.5181121826172	42.56693267822266	913.6038208007812	243.6754913330078	40.58658981323242	868.482177734375	268.7522888183594	36.31709289550781	981.5097045898438	415.9889526367188	40.1016845703125	888.7483520507812	345.9968872070312	462.2084350585938	594.3507690429688	398.3579406738281	45.5284309387207	591.0006713867188	343.3313903808594	347.6336669921875	593.1607666015625	205.4750213623047	43.96992492675781	637.267578125	259.28173828125	40.42142105102539	678.76171875	298.5436096191406	33.70057678222656	568.244384765625	447.9464111328125	46.88686370849609	640.2028198242188	340.8760681152344	916.63720703125	935.8353271484375	271.5965881347656	715.5247802734375	586.6185913085938	nan	nan	nan	
760	7.59	426.2910461425781	975.2072143554688	704.4031982421875	429.1386108398438	975.380859375	833.7138061523438	429.9103088378906	1027.019409179688	761.9616088867188	213.9427947998047	1223.645629882812	779.736083984375	449.4477844238281	1145.205932617188	767.4825439453125	420.8876342773438	1394.397216796875	787.2100219726562	261.7834167480469	1347.9912109375	782.8623046875	462.0554504394531	1254.955688476562	715.357177734375	428.8423461914062	1355.139282226562	887.9165649414062	346.9073181152344	1379.567626953125	946.4662475585938	357.2999877929688	1257.201538085938	1012.684020996094	324.8577575683594	1053.779907226562	1022.6162109375	383.1543884277344	1037.668334960938	962.698486328125	214.060546875	816.7029418945312	977.6083374023438	253.0658874511719	804.8880004882812	1034.019409179688	302.9517822265625	950.724609375	1029.598876953125	202.1314086914062	657.5488891601562	973.6395874023438	251.6298828125	733.8319091796875	1028.798583984375	197.3271789550781	739.2391967773438	995.015625	361.7401428222656	1387.621948242188	624.657958984375	367.4233703613281	1323.006469726562	558.8429565429688	343.9602355957031	1055.08935546875	523.9449462890625	394.9681396484375	1045.160034179688	603.9864501953125	234.4257202148438	829.696533203125	582.7437133789062	260.4297485351562	815.1536865234375	512.0740966796875	315.6535949707031	989.4783325195312	518.3551025390625	219.6033477783203	657.4512939453125	575.1219482421875	200.6498413085938	729.4646606445312	569.758544921875	242.9765777587891	730.7966918945312	514.890869140625	391.39599609375	1602.4521484375	706.017578125	220.3193817138672	1627.904296875	821.9525146484375	231.0567626953125	1626.72265625	721.24658203125	401.5440979003906	1597.325805664062	850.4913940429688	345.3807678222656	919.8892211914062	601.2467651367188	239.498046875	950.1436767578125	642.1393432617188	223.6971588134766	946.657470703125	882.2242431640625	328.28466796875	469.159423828125	957.03564453125	314.6278076171875	605.0177612304688	956.9213256835938	393.4013977050781	35.79041290283203	960.9287719726562	363.8354187011719	253.3078765869141	974.7456665039062	181.5075988769531	42.56076431274414	913.6033935546875	243.6564636230469	40.59107971191406	868.489013671875	268.753173828125	36.31634521484375	981.5073852539062	415.9764099121094	40.087158203125	888.7286987304688	345.7126159667969	462.1832885742188	594.3219604492188	398.3426818847656	45.5280876159668	591.0197143554688	343.1063537597656	347.5787353515625	593.184326171875	205.4715423583984	43.95915222167969	637.2716064453125	259.2705383300781	40.4066047668457	678.7808227539062	298.5411376953125	33.71083831787109	568.2562255859375	447.9432678222656	46.90486907958984	640.2076416015625	340.8348693847656	916.564208984375	935.7566528320312	271.2840270996094	715.570556640625	586.551513671875	nan	nan	nan	
761	7.600000000000001	426.193603515625	975.200439453125	704.3378295898438	429.1199035644531	975.34814453125	833.6744995117188	429.8618774414062	1026.987548828125	761.8380126953125	213.9196014404297	1223.675537109375	779.840576171875	449.3887634277344	1145.154052734375	767.3090209960938	420.963623046875	1394.3759765625	787.0540161132812	261.8378601074219	1347.985107421875	782.926513671875	461.9323120117188	1254.89501953125	715.23388671875	428.9728088378906	1355.041137695312	887.8233032226562	347.3067626953125	1379.62451171875	946.5108642578125	357.5700378417969	1257.170043945312	1012.688720703125	324.8501586914062	1053.770141601562	1022.574890136719	383.041748046875	1037.585083007812	962.575439453125	213.4396667480469	817.0103149414062	977.6278686523438	252.5277404785156	805.094970703125	1033.952026367188	302.8069458007812	950.7967529296875	1029.542114257812	201.119140625	657.7572021484375	973.6222534179688	250.8278656005859	734.04296875	1028.753540039062	196.4987487792969	739.5340576171875	995.0640869140625	361.5585021972656	1387.607177734375	624.6177368164062	367.1804809570312	1323.038940429688	558.7708740234375	344.152099609375	1055.066284179688	523.9215698242188	395.147705078125	1045.29052734375	604.0161743164062	235.0416870117188	829.5596923828125	582.8165893554688	260.9497680664062	815.0029907226562	512.1129150390625	315.9933776855469	989.3524780273438	518.4312133789062	220.4364471435547	657.195556640625	575.3660888671875	201.2141418457031	729.2228393554688	569.8193359375	243.7294464111328	730.5939331054688	515.0442504882812	391.4681091308594	1602.406860351562	705.9168701171875	220.5635986328125	1627.9619140625	822.045654296875	231.1562042236328	1626.77685546875	721.3173828125	401.8504638671875	1597.290283203125	850.30810546875	344.9365539550781	919.9417724609375	601.03955078125	239.0869140625	950.1907958984375	642.0748901367188	223.6899566650391	946.6787109375	882.2625732421875	328.3272094726562	469.1584167480469	957.0170288085938	314.6695251464844	605.0225830078125	956.9231567382812	393.4007263183594	35.81418609619141	960.8970947265625	363.8571472167969	253.2964477539062	974.7271728515625	181.4953002929688	42.55329895019531	913.6045532226562	243.6343841552734	40.59410858154297	868.4931030273438	268.7550964355469	36.31599044799805	981.5043334960938	415.9629821777344	40.07073974609375	888.706787109375	345.4148559570312	462.1590576171875	594.2991333007812	398.3282775878906	45.52933883666992	591.046142578125	342.8686218261719	347.5187683105469	593.2130737304688	205.4679412841797	43.94820022583008	637.2769775390625	259.2579040527344	40.38967132568359	678.8045654296875	298.537841796875	33.72147369384766	568.2734375	447.9395751953125	46.92120361328125	640.2185668945312	340.8024597167969	916.4876098632812	935.67578125	270.9374389648438	715.6286010742188	586.4599609375	nan	nan	nan	
762	7.61	426.1046447753906	975.1885986328125	704.2711181640625	429.1080932617188	975.3124389648438	833.631591796875	429.8322143554688	1026.955932617188	761.7208251953125	213.9152221679688	1223.69970703125	779.9313354492188	449.3563537597656	1145.108520507812	767.163818359375	421.0278015136719	1394.342407226562	786.9229125976562	261.8991394042969	1347.975219726562	782.9876098632812	461.8319702148438	1254.838745117188	715.11865234375	429.1217956542969	1354.962280273438	887.7522583007812	347.7030944824219	1379.667114257812	946.5274658203125	357.7955627441406	1257.13232421875	1012.692932128906	324.8229064941406	1053.746215820312	1022.509582519531	382.9209289550781	1037.493041992188	962.4468383789062	212.8559417724609	817.2883911132812	977.557861328125	251.9875335693359	805.2399291992188	1033.816772460938	302.6638488769531	950.8528442382812	1029.438598632812	200.1449279785156	657.99169921875	973.508544921875	250.1044464111328	734.2202758789062	1028.652099609375	195.7434844970703	739.8192138671875	995.0173950195312	361.3936157226562	1387.587036132812	624.5750732421875	366.9783935546875	1323.066650390625	558.7147827148438	344.3401489257812	1055.033813476562	523.9375610351562	395.3175964355469	1045.420654296875	604.0450439453125	235.5602111816406	829.434814453125	582.9263916015625	261.4070434570312	814.833740234375	512.2105712890625	316.3133239746094	989.2012939453125	518.5414428710938	221.2637939453125	656.9368286132812	575.7213134765625	201.8334197998047	728.9490966796875	570.0220947265625	244.4675598144531	730.4010620117188	515.3020629882812	391.5464477539062	1602.367309570312	705.8233032226562	220.7830657958984	1628.004272460938	822.14013671875	231.2654724121094	1626.828369140625	721.3914794921875	402.1422729492188	1597.255981445312	850.142822265625	344.4786682128906	920.0034790039062	600.8168334960938	238.6619567871094	950.2471313476562	641.994873046875	223.6963195800781	946.6995849609375	882.29638671875	328.3496398925781	469.1622009277344	956.9781494140625	314.6975708007812	605.0286254882812	956.9125366210938	393.3986511230469	35.83504104614258	960.8668823242188	363.8671264648438	253.2900695800781	974.6994018554688	181.4806671142578	42.54440689086914	913.6080932617188	243.6099548339844	40.59510803222656	868.4924926757812	268.7575378417969	36.3162727355957	981.5003051757812	415.9483642578125	40.0531005859375	888.6819458007812	345.1097717285156	462.1372985839844	594.2868041992188	398.3158874511719	45.53300094604492	591.07861328125	342.62548828125	347.455810546875	593.2462158203125	205.4640045166016	43.93717575073242	637.283447265625	259.2445983886719	40.37114334106445	678.8311157226562	298.5341491699219	33.73088073730469	568.2940063476562	447.9356384277344	46.93722152709961	640.2350463867188	340.78076171875	916.4085693359375	935.5927124023438	270.5771484375	715.69580078125	586.3529663085938	nan	nan	nan	
